# Blender v2.82 (sub 7) OBJ File: ''
# www.blender.org
o Cube
v 0.568903 3.107568 -0.572569
v 0.568903 3.107568 0.604069
v -0.607734 3.107568 -0.572569
v -0.607734 3.107568 0.604069
v 1.000000 1.535753 -1.000000
v -1.002523 1.534548 0.147903
v 0.997477 1.534548 0.147903
v -1.000000 1.535753 -1.000000
v -1.000000 1.535753 7.525627
v 1.000000 1.535753 7.525627
v 1.000000 1.535753 4.262814
v -1.000000 1.535753 4.262814
v -0.379919 2.702322 4.882895
v 0.379919 2.702322 4.882895
v 1.036981 1.531549 5.494011
v -0.379919 2.702322 5.274139
v -0.963019 1.531549 5.494011
v 0.379919 2.702322 5.274139
v -1.000000 1.535753 7.525627
v 1.000000 1.535753 7.525627
v 0.988984 1.529082 6.236755
v -1.011016 1.529082 6.236755
v -1.000000 -2.649504 7.534287
v 1.000000 -2.649504 7.534287
v 0.988984 -2.656176 6.245416
v -1.011016 -2.656176 6.245416
v -0.996705 -2.812359 7.362480
v 1.003295 -2.812359 7.362480
v 0.991078 -2.814734 6.290938
v -1.008922 -2.814734 6.290938
v 0.938855 -2.774824 -0.902148
v 0.999716 -2.553098 -0.929535
v 0.936333 -2.776029 0.122678
v 0.997194 -2.554303 0.218368
v -1.000284 -2.553098 -0.929535
v -0.938067 -2.774824 -0.902148
v -0.940590 -2.776029 0.122678
v -1.002806 -2.554303 0.218368
v 0.871953 -2.812359 7.379188
v 0.740334 -2.812359 7.393553
v 0.608480 -2.812359 7.405571
v 0.476432 -2.812359 7.415237
v 0.344234 -2.812359 7.422549
v 0.211926 -2.812359 7.427505
v 0.079550 -2.812359 7.430102
v -0.052850 -2.812359 7.430340
v -0.185234 -2.812359 7.428219
v 1.000000 2.702322 4.262814
v -1.000000 2.702322 4.262814
v 1.000000 2.702322 7.525627
v -1.000000 2.702322 7.525627
v -1.000000 2.702322 5.894220
v 1.000000 2.702322 5.894220
v 1.000000 2.702322 7.525627
v 0.667258 3.205053 6.943657
v -0.600555 3.205053 6.943657
v -1.000000 2.702322 7.525627
v 1.014201 2.706372 5.562166
v 0.633906 3.206754 6.260314
v -0.633906 3.206754 6.260314
v -0.985799 2.706372 5.562166
v 1.000000 2.702322 1.000000
v -1.000000 2.702322 1.000000
v 1.000000 2.702322 -1.000000
v -1.000000 2.702322 -1.000000
v 0.997477 1.534548 0.147903
v -0.940590 -2.776029 0.122678
v -1.002523 1.534548 0.147903
v -1.002806 -2.554303 0.218368
v 0.936333 -2.776029 0.122678
v 0.997194 -2.554303 0.218368
vt 0.823540 0.551460
vt 0.676460 0.698540
vt 0.676460 0.551460
vt 0.571039 0.000000
vt 0.571039 0.000000
vt 0.571039 0.000000
vt 0.571039 0.000000
vt 0.625000 0.250000
vt 0.571039 0.250000
vt 0.382657 0.750000
vt 0.571039 1.000000
vt 0.382657 1.000000
vt 0.625000 0.500000
vt 0.571039 0.750000
vt 0.571039 0.500000
vt 0.382657 0.500000
vt 0.382657 0.750000
vt 0.132692 0.507692
vt 0.367308 0.742308
vt 0.132692 0.742308
vt 0.382657 0.250000
vt 0.382657 0.000000
vt 0.625000 0.750000
vt 0.571039 1.000000
vt 0.571039 0.750000
vt 0.625000 0.750000
vt 0.625000 0.750000
vt 0.625000 0.000000
vt 0.625000 0.000000
vt 0.571039 0.750000
vt 0.625000 0.750000
vt 0.571039 0.750000
vt 0.625000 0.000000
vt 0.571039 0.000000
vt 0.625000 0.000000
vt 0.875000 0.750000
vt 0.625000 0.750000
vt 0.571039 1.000000
vt 0.571039 1.000000
vt 0.571039 0.000000
vt 0.797490 0.750000
vt 0.702510 0.750000
vt 0.702510 0.750000
vt 0.571039 1.000000
vt 0.571039 0.750000
vt 0.571039 1.000000
vt 0.571039 1.000000
vt 0.571039 1.000000
vt 0.571039 0.750000
vt 0.571039 0.750000
vt 0.571039 0.750000
vt 0.571039 0.750000
vt 0.571039 0.000000
vt 0.571039 0.000000
vt 0.571039 0.750000
vt 0.571039 1.000000
vt 0.571039 1.000000
vt 0.571039 0.000000
vt 0.125000 0.500000
vt 0.375000 0.500000
vt 0.367308 0.507692
vt 0.132692 0.742308
vt 0.375000 0.750000
vt 0.125001 0.750000
vt 0.875000 0.750000
vt 0.875000 0.750000
vt 0.797490 0.750000
vt 0.670762 0.750000
vt 0.829238 0.750000
vt 0.670762 0.750000
vt 0.875000 0.750000
vt 0.875000 0.750000
vt 0.875000 0.750000
vt 0.625000 0.750000
vt 0.829238 0.750000
vt 0.823540 0.698540
vt 0.875000 0.500000
vt 0.125001 0.750000
vt 0.367308 0.742308
vt 0.375000 0.750000
vt 0.571039 0.750000
vt 0.382657 1.000000
vt 0.625000 1.000000
vt 0.571039 1.000000
vt 0.571039 0.000000
vt 0.125000 0.749642
vn 0.0000 1.0000 0.0000
vn 0.0000 0.0000 1.0000
vn -1.0000 0.0000 -0.0022
vn 0.0000 0.0172 0.9999
vn 1.0000 0.0000 0.0022
vn 0.0000 0.0000 -1.0000
vn 0.0000 -1.0000 -0.0012
vn 0.2743 -0.9617 0.0000
vn -1.0000 0.0000 0.0000
vn 0.9995 0.0254 0.0181
vn 1.0000 -0.0017 -0.0006
vn 0.0000 -1.0000 0.0003
vn 0.9995 0.0000 -0.0300
vn -0.9995 -0.0316 0.0000
vn 0.0000 -1.0000 -0.0034
vn 0.0000 -0.0021 -1.0000
vn 0.0000 -1.0000 -0.0033
vn 0.1154 -0.9933 0.0042
vn 0.9999 0.0099 -0.0114
vn 1.0000 -0.0000 -0.0085
vn -1.0000 0.0000 0.0085
vn 0.0000 0.0021 1.0000
vn 0.0000 -1.0000 0.0022
vn -0.9995 -0.0294 0.0087
vn 0.0000 -0.7258 0.6879
vn 0.0000 -0.2760 -0.9612
vn -0.9627 -0.2705 -0.0027
vn 0.0000 -0.1226 -0.9925
vn 0.0000 -0.3962 0.9181
vn 0.9641 -0.2654 0.0018
vn 0.0000 -0.0172 -0.9999
vn 0.0000 1.0000 0.0025
vn 0.0000 -0.9999 -0.0122
vn 0.0000 0.7567 0.6537
vn -0.8149 0.5796 -0.0047
vn 0.8300 0.5577 0.0072
vn 0.0000 0.8128 -0.5826
vn 0.0000 0.6988 0.7153
vn 0.6849 0.7286 0.0000
vn -0.7185 0.6955 0.0000
vn 0.0000 0.7257 -0.6880
vn -0.1154 0.9933 -0.0042
vn -1.0000 0.0022 0.0000
vn 1.0000 -0.0022 0.0000
vn -0.9995 -0.0254 -0.0181
vn 1.0000 0.0000 0.0000
vn -1.0000 0.0017 0.0006
vn 0.9995 0.0316 0.0000
vn -0.9995 0.0000 0.0300
vn 0.9995 0.0294 -0.0087
vn -0.9999 -0.0099 0.0114
vn -0.9631 -0.2692 -0.0024
vn 0.9644 -0.2645 0.0021
vn -0.2743 0.9617 0.0000
vn -0.7601 0.6487 0.0387
vn 0.7708 0.6361 -0.0360
s off
f 3/1/1 2/2/1 1/3/1
f 9/4/2 22/5/2 19/6/2
f 68/7/3 65/8/3 8/9/3
f 34/10/4 6/11/4 38/12/4
f 64/13/5 66/14/5 5/15/5
f 65/8/6 5/15/6 8/9/6
f 32/16/5 66/14/5 71/17/5
f 36/18/7 70/19/7 67/20/7
f 68/7/3 35/21/3 69/22/3
f 50/23/2 9/24/2 10/25/2
f 58/26/8 50/23/8 53/27/8
f 52/28/9 9/4/9 51/29/9
f 53/27/10 10/25/10 15/30/10
f 62/31/11 11/32/11 66/14/11
f 63/33/9 12/34/9 49/35/9
f 63/36/1 48/37/1 62/31/1
f 66/14/12 12/38/12 68/39/12
f 48/37/13 15/30/13 11/32/13
f 49/35/14 17/40/14 52/28/14
f 13/41/1 18/42/1 14/43/1
f 11/32/15 17/44/15 12/38/15
f 21/45/16 26/46/16 22/47/16
f 10/25/2 19/48/2 20/49/2
f 17/44/17 21/45/17 22/47/17
f 15/30/18 20/49/18 21/45/18
f 25/50/19 28/51/19 29/52/19
f 20/49/20 25/50/20 21/45/20
f 19/6/21 26/53/21 23/54/21
f 19/48/22 24/55/22 20/49/22
f 29/52/23 27/56/23 30/57/23
f 26/53/24 27/58/24 23/54/24
f 24/55/25 27/56/25 28/51/25
f 25/50/26 30/57/26 26/46/26
f 67/20/27 35/59/27 36/18/27
f 36/18/28 32/60/28 31/61/28
f 37/62/29 34/63/29 38/64/29
f 70/19/30 32/16/30 71/17/30
f 8/9/31 32/16/31 35/21/31
f 18/42/1 48/37/1 14/43/1
f 14/43/1 49/65/1 13/41/1
f 13/41/1 52/66/1 16/67/1
f 16/67/1 53/27/1 18/42/1
f 59/68/32 56/69/32 55/70/32
f 61/71/33 53/27/33 52/66/33
f 57/72/2 52/66/2 51/73/2
f 56/69/34 54/74/34 55/70/34
f 57/72/35 60/75/35 61/71/35
f 58/26/36 55/70/36 54/74/36
f 59/68/37 61/71/37 60/75/37
f 54/74/2 51/73/2 50/23/2
f 2/2/38 63/36/38 62/31/38
f 1/3/39 62/31/39 64/13/39
f 3/1/40 63/36/40 4/76/40
f 1/3/41 65/77/41 3/1/41
f 6/11/2 66/14/2 68/39/2
f 37/62/2 69/78/2 67/20/2
f 33/79/2 67/20/2 70/19/2
f 34/63/2 70/19/2 71/80/2
f 7/81/2 71/17/2 66/14/2
f 38/12/2 68/39/2 69/82/2
f 3/1/1 4/76/1 2/2/1
f 9/4/42 17/40/42 22/5/42
f 68/7/43 63/33/43 65/8/43
f 34/10/4 7/81/4 6/11/4
f 64/13/44 62/31/44 66/14/44
f 65/8/6 64/13/6 5/15/6
f 32/16/5 5/15/5 66/14/5
f 36/18/7 31/61/7 70/19/7
f 68/7/3 8/9/3 35/21/3
f 50/23/2 51/83/2 9/24/2
f 58/26/2 54/74/2 50/23/2
f 52/28/45 17/40/45 9/4/45
f 53/27/46 50/23/46 10/25/46
f 62/31/46 48/37/46 11/32/46
f 63/33/47 68/7/47 12/34/47
f 63/36/1 49/65/1 48/37/1
f 66/14/12 11/32/12 12/38/12
f 48/37/48 53/27/48 15/30/48
f 49/35/49 12/34/49 17/40/49
f 13/41/1 16/67/1 18/42/1
f 11/32/15 15/30/15 17/44/15
f 21/45/16 25/50/16 26/46/16
f 10/25/2 9/24/2 19/48/2
f 17/44/17 15/30/17 21/45/17
f 15/30/2 10/25/2 20/49/2
f 25/50/50 24/55/50 28/51/50
f 20/49/20 24/55/20 25/50/20
f 19/6/21 22/5/21 26/53/21
f 19/48/22 23/84/22 24/55/22
f 29/52/23 28/51/23 27/56/23
f 26/53/51 30/85/51 27/58/51
f 24/55/25 23/84/25 27/56/25
f 25/50/26 29/52/26 30/57/26
f 67/20/52 69/86/52 35/59/52
f 36/18/28 35/59/28 32/60/28
f 37/62/29 33/79/29 34/63/29
f 70/19/53 31/61/53 32/16/53
f 8/9/31 5/15/31 32/16/31
f 18/42/1 53/27/1 48/37/1
f 14/43/1 48/37/1 49/65/1
f 13/41/1 49/65/1 52/66/1
f 16/67/1 52/66/1 53/27/1
f 59/68/32 60/75/32 56/69/32
f 61/71/33 58/26/33 53/27/33
f 57/72/54 61/71/54 52/66/54
f 56/69/34 57/72/34 54/74/34
f 57/72/55 56/69/55 60/75/55
f 58/26/56 59/68/56 55/70/56
f 59/68/37 58/26/37 61/71/37
f 54/74/2 57/72/2 51/73/2
f 2/2/38 4/76/38 63/36/38
f 1/3/39 2/2/39 62/31/39
f 3/1/40 65/77/40 63/36/40
f 1/3/41 64/13/41 65/77/41
f 6/11/2 7/81/2 66/14/2
f 37/62/2 38/64/2 69/78/2
f 33/79/2 37/62/2 67/20/2
f 34/63/2 33/79/2 70/19/2
f 7/81/2 34/10/2 71/17/2
f 38/12/2 6/11/2 68/39/2
l 39 28
l 40 39
l 41 40
l 42 41
l 43 42
l 44 43
l 45 44
l 46 45
l 47 46
